# xmcd
# 
# Track frame offsets:
#     150
#     25955
#     44725
#     60307
#     83385
#     94932
#     119777
#     155689
#     182689
#     194616
#     220129
#     240309
# 
# Disc length: 3442
# 
# Revision: 0
# Processed by: cddbd v1.5.2PL0 Copyright (c) Steve Scherf et al.
# Submitted via: fre:ac v1.0.17
# 
DISCID=a30d700c
DTITLE=Dave Hole - The Plumber
DYEAR=0
DGENRE=Blues
TTITLE0=Boogaloo
TTITLE1=Do What You Do
TTITLE2=Is it True (Part 1)
TTITLE3=Is it True (Part 2)
TTITLE4=Me And My Guitar
TTITLE5=New Way To Live
TTITLE6=North West Blues
TTITLE7=Sign Me Up
TTITLE8=The Plumber
TTITLE9=Three Days Out
TTITLE10=Wrecking Yard
TTITLE11=You Don't Have To Be Pretty To Sing The Blues
EXTD=
EXTT0=
EXTT1=
EXTT2=
EXTT3=
EXTT4=
EXTT5=
EXTT6=
EXTT7=
EXTT8=
EXTT9=
EXTT10=
EXTT11=
PLAYORDER=
